<?xml version="1.0" encoding="iso-8859-1"?>
<!-- Uploaded to: SVG Repo, www.svgrepo.com, Generator: SVG Repo Mixer Tools -->
<svg fill="#000000" height="800px" width="800px" version="1.1" id="Capa_1" xmlns="http://www.w3.org/2000/svg" xmlns:xlink="http://www.w3.org/1999/xlink" 
	 viewBox="0 0 334.086 334.086" xml:space="preserve">
<path d="M243.843,334.086C243.842,334.086,243.842,334.086,243.843,334.086c-0.001,0-0.001,0-0.002,0
	c-0.695,0-1.395-0.091-2.08-0.275c-0.004,0.002-0.012-0.002-0.017-0.005c-0.005,0-0.01-0.002-0.017-0.004
	c-0.005-0.001-0.009,0.002-0.016-0.005c-0.093-0.025-0.186-0.053-0.277-0.082l-48.695-15.213c-3.34-1.043-5.614-4.137-5.614-7.636
	v-71.089c0-2.545,1.211-4.938,3.261-6.445c2.05-1.507,4.692-1.95,7.125-1.19l46.331,14.475l46.331-14.475
	c2.433-0.76,5.075-0.316,7.125,1.19c2.05,1.508,3.261,3.9,3.261,6.445v71.089c0,3.499-2.274,6.593-5.614,7.636l-48.71,15.218
	c-0.031,0.01-0.062,0.02-0.094,0.029c-0.004,0.001-0.01,0.003-0.015,0.004s-0.014,0.003-0.015,0.004
	c-0.005,0.002-0.011,0.004-0.016,0.005h-0.001C245.356,333.979,244.597,334.086,243.843,334.086z M251.842,260.879v54.326
	l32.717-10.221v-54.326L251.842,260.879z M203.126,304.984l32.717,10.221v-54.326l-32.717-10.221V304.984z M41.526,307.336
	c-1.001,0-2.02-0.189-3.005-0.589c-4.094-1.661-6.066-6.327-4.405-10.421l27.575-67.959c8.519-20.99,17.511-35.853,28.3-46.774
	c14.287-14.464,31.951-21.798,52.501-21.798h36.576c45.264,0,65.932,34.747,77.54,60.883c1.793,4.038-0.026,8.765-4.064,10.559
	c-4.034,1.794-8.765-0.026-10.559-4.064c-11.729-26.408-25.46-41.941-43.123-48.178l-31.62,43.331
	c-1.506,2.063-3.907,3.284-6.462,3.284s-4.956-1.221-6.462-3.284l-31.651-43.371c-19.115,6.692-33.513,24.293-46.149,55.43
	l-27.575,67.958C47.68,305.45,44.686,307.336,41.526,307.336z M140.195,175.831l20.585,28.207l20.583-28.206
	c-0.759-0.025-1.523-0.037-2.295-0.037h-36.575C141.72,175.795,140.955,175.807,140.195,175.831z M222.627,137.491H98.929
	c-2.557,0-4.96-1.222-6.466-3.289c-10.579-14.518-16.171-31.708-16.171-49.713C76.293,37.901,114.193,0,160.778,0
	c8.695,0,17.274,1.319,25.501,3.923l0.259,0.083c0.78,0.25,1.568,0.515,2.355,0.793l0.466,0.164
	c0.435,0.156,0.812,0.297,1.188,0.439l0.511,0.194c0.419,0.161,0.811,0.312,1.199,0.47l0.356,0.145
	c0.757,0.309,1.513,0.628,2.264,0.961l0.344,0.149c0.053,0.022,0.105,0.047,0.158,0.07l2.472,1.162
	c0.034,0.017,0.069,0.033,0.104,0.05l2.239,1.144c0.613,0.323,1.217,0.653,1.815,0.987l0.374,0.208
	c0.4,0.227,0.749,0.43,1.095,0.634l0.794,0.472c0.243,0.146,0.487,0.293,0.729,0.442l0.479,0.299
	c1.121,0.701,2.209,1.416,3.237,2.127l0.498,0.344c0.032,0.022,0.063,0.044,0.095,0.066l2.22,1.614
	c0.033,0.024,0.066,0.05,0.1,0.075l0.22,0.168c0.609,0.463,1.227,0.948,1.839,1.438l0.484,0.392
	c0.027,0.022,0.056,0.046,0.083,0.068l2.054,1.734c0.033,0.029,0.067,0.059,0.102,0.089l0.53,0.472
	c0.478,0.425,0.947,0.854,1.416,1.29l0.455,0.424c0.237,0.224,0.427,0.407,0.617,0.591l1.44,1.423
	c0.024,0.025,0.05,0.051,0.074,0.076l1.11,1.146c0.036,0.037,0.072,0.074,0.107,0.112l0.61,0.656
	c0.376,0.406,0.738,0.806,1.097,1.207l0.48,0.541c0.025,0.029,0.052,0.059,0.077,0.089l1.767,2.089
	c0.029,0.034,0.058,0.069,0.086,0.104l0.374,0.466c0.354,0.441,0.703,0.884,1.049,1.331l0.565,0.738
	c0.027,0.035,0.055,0.071,0.081,0.107l2.589,3.639c0.019,0.027,0.057,0.083,0.074,0.11c0.284,0.424,0.572,0.863,0.857,1.306
	c0.113,0.176,0.237,0.373,0.359,0.569l0.563,0.899c0.024,0.039,0.048,0.078,0.072,0.117l1.367,2.312
	c0.023,0.042,0.048,0.084,0.071,0.126l0.288,0.518c0.306,0.545,0.616,1.119,0.922,1.695l0.334,0.635
	c0.021,0.039,0.042,0.08,0.062,0.12l1.957,4.056c0.014,0.028,0.046,0.101,0.059,0.13c0.21,0.47,0.423,0.956,0.63,1.443
	c0.096,0.226,0.19,0.455,0.284,0.685l0.378,0.925c0.014,0.034,0.028,0.069,0.042,0.104l1.239,3.306
	c0.223,0.627,0.44,1.278,0.653,1.935L241.347,59c0.013,0.041,0.026,0.082,0.039,0.123l1.263,4.435
	c0.017,0.063,0.033,0.127,0.048,0.19c0.122,0.48,0.239,0.962,0.353,1.444c0.001,0.007,0.003,0.014,0.005,0.021
	c0.058,0.246,0.111,0.493,0.165,0.74l0.228,1.043c0.008,0.039,0.017,0.077,0.024,0.115l0.526,2.742
	c0.008,0.043,0.015,0.086,0.022,0.129l0.113,0.684c0.103,0.624,0.198,1.243,0.286,1.865l0.113,0.817
	c0.046,0.34,0.081,0.637,0.117,0.935l0.112,0.976c0.005,0.038,0.009,0.077,0.013,0.116l0.262,2.868
	c0.041,0.562,0.076,1.124,0.105,1.688c0.082,1.517,0.124,3.056,0.124,4.559c0,18.006-5.593,35.196-16.175,49.714
	C227.586,136.27,225.183,137.491,222.627,137.491z M198.809,121.491h19.607c7.11-11.034,10.85-23.744,10.85-37.002
	c0-1.216-0.034-2.464-0.102-3.711c-0.024-0.464-0.052-0.91-0.085-1.355l-0.506-4.672c-0.068-0.482-0.145-0.98-0.227-1.476
	l-0.867-4.396c-0.003-0.009-0.005-0.019-0.007-0.027c-0.099-0.425-0.203-0.847-0.311-1.27c-0.006-0.022-0.012-0.046-0.018-0.069
	l-1.214-4.183c-0.167-0.516-0.34-1.032-0.521-1.545l-1.579-4.081c-0.171-0.402-0.345-0.799-0.521-1.194l-1.944-3.978
	c-0.238-0.451-0.486-0.91-0.741-1.365l-2.2-3.673c-0.244-0.38-0.479-0.737-0.717-1.093l-2.686-3.725
	c-0.267-0.345-0.554-0.709-0.845-1.07l-2.256-2.665c-0.279-0.312-0.575-0.64-0.875-0.963l-3.587-3.6
	c-0.383-0.356-0.765-0.704-1.151-1.049l-2.649-2.243c-0.48-0.386-0.992-0.787-1.511-1.182l-2.525-1.827
	c-0.831-0.574-1.711-1.152-2.621-1.722l-1.648-0.999c-0.263-0.154-0.531-0.311-0.801-0.464l-0.339-0.188
	c-0.501-0.281-0.993-0.549-1.488-0.812l-4.275-2.072c-0.654-0.289-1.26-0.546-1.87-0.794l-0.334-0.136
	c-0.28-0.113-0.59-0.233-0.899-0.352l-0.466-0.178c-0.283-0.106-0.584-0.22-0.887-0.328l-0.418-0.147
	c-0.646-0.228-1.286-0.443-1.935-0.65l-0.231-0.075C174.79,17.069,167.834,16,160.778,16c-37.763,0-68.485,30.725-68.485,68.489
	c0,13.258,3.738,25.968,10.847,37.002h19.728c-9.331-9.559-15.089-22.621-15.089-37.002c0-28.25,22.083-51.502,50.274-52.934
	c2.611-0.144,5.128,1.02,6.73,3.09c1.603,2.068,2.092,4.79,1.311,7.288c-1.115,3.565-1.681,7.29-1.681,11.068
	c0,20.403,16.598,37.003,36.999,37.003c0.646,0,1.289-0.02,1.929-0.051c2.602-0.128,5.122,1.027,6.723,3.095
	c1.6,2.069,2.088,4.789,1.307,7.285C208.815,108.496,204.457,115.675,198.809,121.491z M160.78,121.491
	c12.654,0,24.052-6.305,30.778-16.404c-24.532-4.632-43.146-26.225-43.146-52.085c0-1.152,0.037-2.303,0.11-3.447
	c-14.476,5.061-24.745,18.834-24.745,34.935C123.778,104.893,140.377,121.491,160.78,121.491z"/>
</svg>